<svg xmlns="http://www.w3.org/2000/svg" viewBox="0 0 877 257">
  <path d="M864.72,82.41H307.08l16.73-67.66c1.85-7.5-3.83-14.75-11.57-14.75H52.87c-5.48,0-10.26,3.74-11.57,9.05L.35,174.68c-1.85,7.5,3.83,14.75,11.57,14.75h257.97l-12.85,52.65c-1.85,7.6,3.91,14.92,11.73,14.92h559.43c5.66,0,10.58-3.86,11.92-9.36l36.53-150.08c1.88-7.72-3.97-15.15-11.92-15.15Z"/>
  <path d="M125.17,79.68c-2.41-3.04-5.46-5.45-9.13-7.24-3.68-1.78-8.03-2.67-13.07-2.67-2.42,0-4.68.27-6.77.79-2.1.52-4.2,1.26-6.3,2.2l9.76-40.59-24.41,3.78-27.25,114.36c3.04,1.47,6.27,2.62,9.69,3.46,3.41.84,6.64,1.47,9.69,1.89,3.04.42,5.75.65,8.11.71,2.36.05,4.02.08,4.96.08,7.35,0,14.17-1.4,20.47-4.17,6.3-2.77,11.75-6.55,16.38-11.33,4.62-4.77,8.27-10.38,10.95-16.83s4.02-13.29,4.02-20.53c0-4.72-.58-9.12-1.73-13.21-1.15-4.09-2.94-7.66-5.35-10.7ZM106.9,117.11c-1.37,3.78-3.23,7.16-5.59,10.15-2.36,2.99-5.17,5.38-8.43,7.16-3.26,1.78-6.72,2.67-10.39,2.67h-2.83c-.74,0-1.37-.02-1.89-.08-.53-.05-1.02-.13-1.5-.24-.47-.11-1.02-.21-1.65-.31l10.39-43.1c1.89-1.67,4.02-2.77,6.38-3.3,2.36-.52,4.27-.79,5.75-.79,4.52,0,7.61,1.42,9.29,4.25,1.68,2.83,2.52,6.76,2.52,11.8,0,4.09-.69,8.02-2.05,11.8ZM188.08,51.75c-.9,1.94-2.08,3.62-3.54,5.03-1.48,1.42-3.18,2.55-5.12,3.38-1.95.85-4.02,1.26-6.22,1.26-3.26,0-6.19-.96-8.82-2.91-2.63-1.94-3.94-4.91-3.94-8.89,0-2.2.44-4.27,1.34-6.21.9-1.94,2.07-3.62,3.54-5.03,1.47-1.42,3.18-2.54,5.12-3.38,1.94-.84,4.02-1.26,6.22-1.26,3.26,0,6.19.97,8.82,2.91,2.63,1.95,3.94,4.91,3.94,8.89,0,2.2-.45,4.28-1.34,6.21ZM158.24,71.5h23.47l-19.84,82.74h-23.31l19.68-82.74ZM224.07,71.49h26.14l-4.72,19.19h-25.99l-6.93,28.94c-.63,2.42-1.02,4.67-1.18,6.76-.16,2.09.1,3.9.79,5.43.68,1.52,1.86,2.7,3.54,3.54,1.68.84,3.99,1.26,6.93,1.26,2.52,0,4.96-.24,7.32-.71,2.32-.46,4.67-1.11,7.05-1.93l-4.91,20.02c-1.13.3-2.28.59-3.47.87-3.68.83-8.03,1.26-13.07,1.26-7.24,0-12.86-1.07-16.85-3.23-4-2.14-6.82-5.08-8.51-8.81-1.68-3.73-2.42-7.99-2.2-12.82.21-4.83.95-9.91,2.2-15.26l15.43-65.13,24.41-3.78-5.98,24.38ZM548.55,143.1c-3.05-1.46-6.25-2.62-9.61-3.46-3.36-.83-6.56-1.43-9.61-1.81-3.04-.36-5.75-.6-8.11-.71-2.36-.1-4.02-.16-4.96-.16-7.24,0-13.97,1.37-20.16,4.09-6.2,2.72-11.58,6.48-16.14,11.25-4.57,4.77-8.14,10.36-10.71,16.75-2.57,6.4-3.86,13.21-3.86,20.45,0,4.72.52,9.15,1.58,13.29,1.05,4.15,2.76,7.77,5.12,10.85,2.36,3.1,5.4,5.55,9.13,7.39,3.73,1.84,8.22,2.75,13.47,2.75,4.41,0,8.4-.79,11.97-2.36s6.82-3.56,9.76-5.98c.52,1.47,1.04,2.78,1.58,3.93.52,1.16,1.1,2.36,1.73,3.62l20.95-2.99c-1.78-4.72-2.99-10.1-3.62-16.12s-.22-12.03,1.26-18.01l10.24-42.79ZM515.79,181.8c-.53,2.42-1.02,5.06-1.5,7.94-.47,2.89-.82,5.63-1.02,8.26-2.2,2.2-4.28,3.77-6.22,4.72-1.94.94-4.12,1.42-6.54,1.42-4.52,0-7.62-1.47-9.29-4.4-1.68-2.94-2.52-6.92-2.52-11.96,0-4.09.66-8.02,1.97-11.8,1.31-3.78,3.12-7.11,5.43-9.99,2.3-2.88,5.01-5.22,8.11-7,3.09-1.78,6.43-2.67,10-2.67,1.58,0,2.91.06,4.02.16,1.1.11,2.33.27,3.7.47l-6.14,24.85ZM755.1,142.78c-2.36-1.99-5.12-3.51-8.27-4.56-3.15-1.05-6.57-1.57-10.24-1.57-7.45,0-14.25,1.49-20.39,4.48-6.14,2.99-11.37,6.92-15.67,11.8-4.31,4.88-7.64,10.46-10,16.75-2.36,6.29-3.54,12.79-3.54,19.51,0,4.72.63,9.17,1.89,13.37,1.26,4.2,3.28,7.86,6.06,11.01,2.78,3.15,6.4,5.63,10.87,7.47,4.46,1.84,9.95,2.75,16.46,2.75,5.36,0,10.32-.47,14.88-1.41,4.57-.94,8.32-2,11.26-3.15l-1.73-18.41c-3.05,1.16-6.3,2.03-9.77,2.6-3.46.58-6.88.86-10.24.86-5.36,0-9.27-.91-11.73-2.75-2.47-1.83-4.07-4.96-4.8-9.36,7.56,0,14.54-.58,20.95-1.73,6.4-1.15,11.94-3.02,16.61-5.58,4.67-2.57,8.32-5.9,10.95-9.99,2.63-4.09,3.94-9.08,3.94-14.94,0-3.67-.66-6.95-1.97-9.83-1.32-2.88-3.15-5.32-5.51-7.32ZM740.22,167.17c-.74,1.47-2.21,2.83-4.41,4.09s-5.3,2.33-9.29,3.22c-4,.89-9.24,1.45-15.75,1.65,1.26-6.29,3.91-11.36,7.95-15.18,4.04-3.82,8.74-5.74,14.09-5.74,5.67,0,8.5,2.52,8.5,7.55,0,1.46-.36,2.94-1.1,4.4ZM426.58,193.75c-.16,2.1.1,3.91.79,5.43.68,1.52,1.86,2.7,3.54,3.54,1.68.85,3.99,1.26,6.93,1.26,2.52,0,4.96-.24,7.32-.71,2.28-.45,4.6-1.09,6.93-1.89l-4.91,20.01c-1.09.29-2.21.57-3.36.83-3.68.84-8.03,1.26-13.07,1.26-7.24,0-12.86-1.08-16.85-3.23-4-2.15-6.82-5.08-8.5-8.81-1.68-3.73-2.42-7.99-2.21-12.82.21-4.82.95-9.91,2.21-15.26l15.43-65.12,24.41-3.78-5.98,24.38h26.14l-4.73,19.19h-25.98l-6.93,28.95c-.63,2.41-1.02,4.67-1.18,6.76ZM384.45,138.55c2.59.74,4.87,1.51,6.88,2.32l-4.17,19.16-.03.06c-2.2-1.15-5.04-2.25-8.51-3.3-3.46-1.04-6.88-1.57-10.24-1.57-1.48,0-2.91.08-4.33.24-1.42.16-2.74.5-3.94,1.02-1.21.52-2.18,1.26-2.91,2.2-.74.94-1.1,2.2-1.1,3.78,0,2.09.81,3.67,2.44,4.72,1.62,1.05,3.91,2.31,6.85,3.78,4.09,2,7.51,3.83,10.24,5.51,2.73,1.68,4.9,3.46,6.54,5.35h0c1.62,1.9,2.8,4.05,3.54,6.46.73,2.41,1.1,5.14,1.1,8.49s-.71,6.67-2.13,9.91c-1.42,3.25-3.65,6.14-6.69,8.65-3.04,2.52-6.93,4.56-11.65,6.14-4.73,1.57-10.4,2.36-17.01,2.36-4.09,0-7.79-.27-11.1-.79-3.31-.53-6.22-1.18-8.74-1.97-2.52-.79-4.65-1.59-6.38-2.44-1.73-.84-3.07-1.51-4.02-2.04l8.03-17.93c1.78,1.05,4.57,2.36,8.35,3.93,3.78,1.57,8.35,2.36,13.7,2.36s9.03-.76,11.02-2.28c2-1.52,2.99-3.17,2.99-4.95,0-1.15-.19-2.15-.55-2.99-.37-.84-.98-1.62-1.81-2.36-.84-.73-2-1.49-3.46-2.28-1.48-.79-3.37-1.7-5.67-2.75-2.63-1.15-5.1-2.39-7.4-3.7-2.31-1.31-4.33-2.88-6.06-4.72-1.73-1.83-3.1-3.93-4.09-6.29-.99-2.36-1.5-5.16-1.5-8.42,0-8.49,3.12-15.21,9.37-20.13,6.24-4.93,15.36-7.39,27.32-7.39,5.67,0,10.71.63,15.12,1.89ZM660.05,138.85h26.14l-4.73,19.19h-25.98l-6.93,28.95c-.63,2.41-1.02,4.67-1.18,6.76-.16,2.1.1,3.91.79,5.43.68,1.52,1.86,2.7,3.54,3.54,1.68.85,3.99,1.26,6.93,1.26,2.52,0,4.96-.24,7.32-.71,2.36-.47,4.74-1.13,7.17-1.97l.02.23-4.85,19.77c-1.19.33-2.41.64-3.67.92-3.68.84-8.03,1.26-13.07,1.26-7.24,0-12.86-1.08-16.85-3.23-4-2.15-6.82-5.08-8.5-8.81-1.68-3.73-2.42-7.99-2.21-12.82.21-4.82.95-9.91,2.21-15.26l15.43-65.12,24.41-3.78-5.98,24.38ZM833.87,139.32l-4.83,19.65v.02c-2.11-.52-4.17-1.02-6.22-1.49-2.05-.47-5.07-.71-9.05-.71-1.48,0-3.1.13-4.88.39-1.78.26-3.26.55-4.41.86l-15.28,63.55h-23.47l18.9-78.34c4.52-1.47,9.58-2.86,15.2-4.17,5.61-1.31,11.94-1.97,18.98-1.97,2.63,0,5.54.24,8.74.71,2.32.34,4.42.85,6.33,1.48ZM615.1,137.83c2.27.33,4.33.82,6.21,1.44l-4.83,19.68c-2.07-.51-4.1-1-6.11-1.46-2.05-.47-5.07-.71-9.06-.71-1.48,0-3.1.13-4.88.39h.01c-1.78.26-3.26.55-4.41.86l-15.28,63.55h-23.47l18.9-78.34c4.52-1.47,9.58-2.86,15.2-4.17,5.61-1.31,11.94-1.97,18.98-1.97,2.63,0,5.54.24,8.74.71Z" fill="#fff"/>
  <path d="M303.27,119.57l3.28-13.22c.15-.61-.3-1.21-.95-1.21l-15.99-.11c-.63,0-1.09-.6-.94-1.21l3.28-13.22c.15-.61-.31-1.21-.95-1.21l-16.47-.11c-.45,0-.85.3-.95.74l-3.69,14.89-3.88,15.63-3.88,15.63-3.88,15.63-3.57,14.43c-.15.61.32,1.21.95,1.21l16.47.11c.45,0,.85-.3.95-.74l3.5-14.14c.11-.44.5-.75.96-.74l16.94.11c.45,0,.85-.3.95-.74l3.5-14.14c.11-.44.5-.75.96-.74l16.94.11c.45,0,.85-.3.95-.74l3.4-13.69c.15-.61-.32-1.21-.94-1.21l-16-.11c-.63,0-1.09-.6-.94-1.21v-.02Z" fill="#fb932b"/>
</svg>